<svg width="347" height="317" viewBox="0 0 347 317" fill="none" xmlns="http://www.w3.org/2000/svg">
<path d="M238.64 316.156V298.61C249.29 298.61 259.22 292.869 264.542 283.636L279.715 292.406C271.274 307.054 255.533 316.156 238.64 316.156Z" fill="#90FFE1"/>
<path d="M58.9577 246.799L43.785 238.024L118.691 108.086C127.138 93.433 142.878 84.3312 159.766 84.3312H309.584V101.876H159.766C149.116 101.876 139.192 107.618 133.864 116.856L58.9577 246.799Z" fill="#90FFE1"/>
<path d="M308.758 242.023L293.623 233.185L329.301 171.885C329.385 171.737 329.616 171.342 329.306 170.794C328.991 170.247 328.533 170.247 328.365 170.247H206.183C195.534 170.247 185.604 175.988 180.277 185.227L147.554 241.992L132.387 233.222L165.109 176.451C173.556 161.803 189.296 152.701 206.183 152.701H328.365C335.102 152.701 341.134 156.199 344.495 162.056C347.855 167.913 347.834 174.887 344.437 180.723L308.758 242.023Z" fill="#90FFE1"/>
<path d="M174.003 316.156H111.15C94.2576 316.156 78.5222 307.054 70.0759 292.406L6.33468 181.83C-2.11156 167.177 -2.11156 148.973 6.33468 134.325L70.0759 23.7447C78.5222 9.09653 94.2576 4.99631e-06 111.15 4.99631e-06H238.643C255.53 4.99631e-06 271.271 9.09653 279.712 23.7447L264.544 32.5199C259.217 23.2812 249.293 17.5452 238.643 17.5452H111.15C100.5 17.5452 90.5709 23.2812 85.2486 32.5199L21.5022 143.1C16.1799 152.339 16.1799 163.816 21.5022 173.055L85.2486 283.636C90.5709 292.869 100.5 298.61 111.15 298.61H174.003C176.969 298.61 179.74 297.014 181.234 294.444L260.884 157.069L276.031 165.881L196.38 303.256C191.768 311.215 183.19 316.156 174.003 316.156Z" fill="#90FFE1"/>
</svg>
